<!-- Copyright 2000-2024 JetBrains s.r.o. and contributors. Use of this source code is governed by the Apache 2.0 license. -->

<svg width="13" height="13" viewBox="0 0 16 16" fill="none" xmlns="http://www.w3.org/2000/svg">
	<path
		d="M12 14C12.5523 14 13 13.5523 13 13C13 12.4477 12.5523 12 12 12C11.4477 12 11 12.4477 11 13C11 13.5523 11.4477 14 12 14Z"
		fill="#548af7"
	/>
	<path
		fill-rule="evenodd"
		clip-rule="evenodd"
		d="M12 16C9 16 8 13 8 13C8 13 9 10 12 10C15 10 16 13 16 13C16 13 15 16 12 16ZM14.9024 12.9785L14.9131 13L14.9024 13.0215C14.787 13.2525 14.6081 13.5582 14.3568 13.8598C13.8602 14.4557 13.1189 15 12 15C10.8811 15 10.1398 14.4557 9.64322 13.8598C9.39186 13.5582 9.21302 13.2525 9.09755 13.0215L9.08686 13L9.09755 12.9785C9.21302 12.7475 9.39186 12.4418 9.64322 12.1402C10.1398 11.5443 10.8811 11 12 11C13.1189 11 13.8602 11.5443 14.3568 12.1402C14.6081 12.4418 14.787 12.7475 14.9024 12.9785Z"
		fill="#548af7"
	/>
	<path
		d="M12 1C13.1046 1 14 1.89543 14 3V9.40904C13.6947 9.2748 13.3618 9.16675 13 9.09548V3C13 2.44772 12.5523 2 12 2H4C3.44772 2 3 2.44772 3 3V13C3 13.5523 3.44772 14 4 14H7.35149C7.49887 14.2842 7.7089 14.637 7.99347 15H4C2.89543 15 2 14.1046 2 13V3C2 2.15611 2.52265 1.4343 3.26192 1.1406C3.49028 1.04987 3.73932 1 4 1H12Z"
		fill="#ced0d6"
	/>
	<path
		d="M9.00093 10C8.64732 10.2692 8.35059 10.5672 8.10677 10.8598C8.06775 10.9066 8.03 10.9534 7.99347 11H5.5C5.22386 11 5 10.7761 5 10.5C5 10.2239 5.22386 10 5.5 10H9.00093Z"
		fill="#ced0d6"
	/>
	<path
		d="M10.5 6C10.7761 6 11 5.77614 11 5.5C11 5.22386 10.7761 5 10.5 5H5.5C5.22386 5 5 5.22386 5 5.5C5 5.77614 5.22386 6 5.5 6H10.5Z"
		fill="#ced0d6"
	/>
	<path
		d="M11 8C11 7.72386 10.7761 7.5 10.5 7.5H5.5C5.22386 7.5 5 7.72386 5 8C5 8.27614 5.22386 8.5 5.5 8.5H10.5C10.7761 8.5 11 8.27614 11 8Z"
		fill="#ced0d6"
	/>
</svg>
