<svg
	width="16"
	height="16"
	viewBox="0 0 640 640"
	fill="none"
	xmlns="http://www.w3.org/2000/svg"
>
	<path
		style="fill: #ddd;"
		d="m 200,160 h 70 c 10.58606,0 23.70596,-2.0972 34,0.33334 20.76413,4.90265 20.76416,34.43067 0,39.33332 C 298.73752,200.90918 292.39563,200 287,200 h -33 -75 c -16.66847,0 -33.50055,-0.6041 -50,1 -4.62295,0.44946 -9.37702,-0.44946 -14,0 -14.94424,1.45291 -31.561104,4.3497 -44,13.33334 C 56.125301,225.07617 49.514862,241.68314 45.666668,259 43.471039,268.88034 41.978352,278.93695 41,289 c -0.417358,4.29282 0.417355,8.70721 0,13 -2.240231,23.04233 -0.959644,47.24213 2.833332,70 2.845306,17.07184 7.868923,36.82602 21.166668,49 13.48555,12.34592 32.392944,16.28821 50,18 4.62298,0.44946 9.37703,-0.44946 14,0 10.30002,1.0014 20.56537,1 31,1 0,-17.20859 -0.28848,-33.36145 4.33333,-50 2.47156,-8.89758 7.25184,-17.37775 12.33334,-25 C 191.87006,342.19492 215.4057,326.87381 242,321.33334 252.0701,319.23541 262.71512,320 273,320 h 50 38 c 25.608,0 51.88275,-1.32413 67.66666,-25 2.40673,-3.61011 4.5477,-6.98047 6.16668,-11 2.70819,-6.72379 4.46778,-13.8114 5.16666,-21 1.80814,-18.59821 0,-38.30136 0,-57 0,-25.52579 1.46057,-51.69104 -1,-77 -0.44946,-4.62299 0.44946,-9.37708 0,-14 C 437.3511,98.039795 433.8447,79.1203 422,66 411.4754,54.34198 395.85532,48.967896 381,45.666687 344.04413,37.454224 304.27634,38.822693 267,44 c -16.55258,2.299011 -36.36174,8.287476 -48,21 -12.44237,13.590881 -16.27571,32.264526 -18,50 -0.44945,4.62292 0.44946,9.37701 0,14 -1.0014,10.30008 -1,20.56537 -1,31 m 56,-79.833313 c 7.63132,-1.271912 16.13266,1.304321 20.66666,7.833313 7.94922,11.446899 1.9479,28.45215 -11.66666,31.66669 -26.27748,6.20434 -35.35086,-35.108218 -9,-39.500003 M 480,200 c 0,28.58701 3.96912,60.47049 -4,88 10.57086,-3.33817 20.85913,-6.91687 32,-8 22.0816,-2.14679 43.98486,2.43768 64,11.33334 7.06567,3.14032 13.70673,7.87558 20,12.33332 2.79736,1.98147 4.70874,4.38061 8,5.33334 -2.35522,-29.83313 -1.65533,-69.02213 -26,-91 -13.1203,-11.84473 -32.03979,-15.3511 -49,-17 -4.62292,-0.44943 -9.37701,0.44946 -14,0 -10.29999,-1.00137 -20.56537,-1 -31,-1 m -40,240 c -14.81958,0 -29.66547,8.1792 -36,22 -5.94537,12.97174 -4,28.05185 -4,42 v 79 c 0,14.87256 -1.21295,29.50305 8.33334,42 13.20468,17.28613 34.36405,15 53.66666,15 h 95 c 15.41803,0 31.66473,1.49091 47,0 15.89636,-1.54547 30.7395,-13.29126 34.66669,-29 C 641.51788,599.59521 640,586.71069 640,575 v -65 c 0,-13.6694 2.85419,-31.12064 -2.33331,-44 C 631.35754,450.33594 617.04803,440 600,440 c 0,-26.18503 3.40936,-54.1716 -9.16669,-78 C 563.26678,309.76849 486.06995,305.89511 453.33334,355 436.38986,380.41522 440,410.81512 440,440 m -33,-84 c -12.65305,5.66058 -28.33215,4 -42,4 h -83 c -21.40933,0 -42.28702,-0.68945 -60,13.33334 C 200.65433,390.23199 200,415.16177 200,440 v 47 c 0,16.16589 -0.40788,33.18799 2.66667,49 3.06159,15.74536 6.96619,32.08435 20.33333,42.66669 14.37401,11.37939 33.06345,16.34033 51,18.33331 18.72372,2.08044 39.00815,4.84644 58,3 9.17261,-0.89178 18.7774,-2 28,-2 V 480 c -8.99695,0 -20.78363,2.05563 -29,-2.16669 -13.67175,-7.02575 -14.39005,-25.89578 -2,-34.5 C 337.08609,437.71799 349.65988,440 359,440 c 3.03607,0 8.27911,1.00696 11,-0.5 3.08459,-1.70837 5.17795,-6.7774 7.33334,-9.5 3.57492,-4.51569 8.15094,-9.09174 12.66666,-12.66669 2.90778,-2.30197 8.65753,-4.64557 9.83334,-8.33331 C 400.7453,406.13974 400,401.99445 400,399 c 0,-6.75412 0.0465,-13.38214 1.33334,-20 1.05036,-5.40186 2.52881,-10.7037 4,-16 0.69184,-2.49054 2.42105,-4.92542 1.66666,-7 m 153,84 h -80 v -32 c 0,-8.14874 -0.40402,-16.43854 3.16666,-24 12.76269,-27.02698 53.8085,-33.94858 70.50003,-6 C 564.18188,395.60684 560,420.1424 560,440 m 40,40 V 600 H 440 V 480 Z"
	/>
</svg>
